# xmcd CD database file
#
# Track frame offsets:
#	150
#	17197
#	30877
#	47823
#	65152
#	81751
#	96715
#	119352
#	135933
#	156335
#	174411
#	189689
#	204002
#
# Disc length: 2909 seconds
#
# Revision: 0
# Processed by: cddbd v1.5.2PL0 Copyright (c) Steve Scherf et al.
# Submitted via: CDex 1.70beta2
#
DISCID=ac0b5b0d
DTITLE=Richard Tesarik - In The Summertime
DYEAR=2007
DGENRE=Blues
TTITLE0=Unchain My Heart
TTITLE1=Tvy jmeno
TTITLE2=In The Summertime
TTITLE3=House Of The Rising Sun
TTITLE4=Tmavomodry blues
TTITLE5=Josephine
TTITLE6=Could You By Loved
TTITLE7=Change The World
TTITLE8=No Woman No Cry
TTITLE9=Cernej diamant
TTITLE10=Take Me Home Country Roads
TTITLE11=DJ Louis
TTITLE12=Hadej
EXTD=YEAR: 2007
EXTT0=
EXTT1=
EXTT2=
EXTT3=
EXTT4=
EXTT5=
EXTT6=
EXTT7=
EXTT8=
EXTT9=
EXTT10=
EXTT11=
EXTT12=
PLAYORDER=
